<svg id="hxui" viewBox="0 0 1280 800" xmlns="http://www.w3.org/2000/svg" fill-rule="evenodd" clip-rule="evenodd"><path d="M577.351 644.056l706.45-3.448v-486.966h-411.696l-294.754 490.414z" fill="none"/><clipPath id="a"><path d="M577.351 644.056l706.45-3.448v-486.966h-411.696l-294.754 490.414z"/></clipPath><path d="M1118.69 160.775v302.206c0 34.247-7.295 63.899-21.881 88.952-14.585 25.052-35.518 44.129-62.79 57.237-27.271 13.108-59.51 19.662-96.717 19.662-56.231 0-100.523-14.591-132.865-43.762-32.348-29.176-48.838-69.133-49.471-119.87v-304.425h111.936v306.649c1.272 50.527 24.739 75.784 70.4 75.784 23.044 0 40.487-6.337 52.323-19.023 11.841-12.686 17.762-33.294 17.762-61.837v-301.573h111.303zm44.584 0h110.99v461.714h-110.99v-461.714z" clip-path="url(#a)"/><path d="M930.571 61.622h-928.304v582.434h566.615l361.689-582.434z" fill="none"/><clipPath id="b"><path d="M930.571 61.622h-928.304v582.434h566.615l361.689-582.434z"/></clipPath><path d="M393.376 615.356h-110.67v-192.803h-163.946v192.803h-111.308v-461.714h111.308v183.293h163.946v-183.293h110.67v461.714zm172.064-248.617l49.785-94.493h110.989l-90.375 167.112 94.813 175.998h-111.623l-53.909-101.475-52.956 101.475h-112.256l95.132-175.998-90.055-167.112h112.255l48.2 94.493z" clip-path="url(#b)"/><path d="M457.101 779.865l488.22-779.861 32.167 20.138-488.22 779.861-32.167-20.138z"/></svg>
